#N canvas 210 111 478 492 10;
#X obj 169 23 catch~ signal;
#X obj 339 45 f;
#X obj 367 45 + 1;
#X obj 397 45 % 7;
#X floatatom 347 67 5 0 0 1 materials - -, f 5;
#X floatatom 339 243 5 0 0 1 atack - -, f 5;
#X floatatom 339 301 5 0 0 1 slope - -, f 5;
#X obj 10 175 tgl 20 0 empty empty empty 17 7 0 10 -258113 -1 -1 0
1;
#X obj 318 45 bng 15 250 50 0 empty empty empty 17 7 0 10 -4034 -1
-1;
#X floatatom 339 185 5 0 0 1 decay - -, f 5;
#X floatatom 339 126 5 1 1024 1 tempo - -, f 5;
#N canvas 571 101 414 600 inputSensors 0;
#X obj 19 16 inlet;
#X msg 280 370 0;
#X obj 70 246 float;
#X obj 184 247 float;
#X obj 70 554 outlet;
#X obj 184 554 send;
#X obj 205 525 makesymbol %s-pression;
#X obj 70 502 float;
#X obj 70 525 pack float float;
#X obj 241 417 trigger float float;
#X obj 241 394 float 0;
#X obj 19 39 route 255;
#X obj 70 162 f;
#X text 117 327 Scale to 0-1;
#X obj 70 185 % 2;
#X obj 97 162 + 1;
#X obj 296 394 + 1;
#X obj 70 358 trigger bang float float bang;
#X msg 118 128 0;
#X obj 19 69 trigger bang bang;
#X text 136 156 0 - High Byte;
#X text 136 172 1 - Low Byte;
#X obj 70 97 trigger bang float float;
#X obj 70 208 select 1 0;
#X obj 70 271 << 7;
#X obj 70 299 |;
#X obj 70 329 / 1023;
#X connect 0 0 11 0;
#X connect 1 0 10 1;
#X connect 2 0 24 0;
#X connect 3 0 25 1;
#X connect 6 0 5 1;
#X connect 7 0 8 0;
#X connect 8 0 4 0;
#X connect 9 0 7 1;
#X connect 9 1 6 0;
#X connect 10 0 9 0;
#X connect 10 0 16 0;
#X connect 11 0 19 0;
#X connect 11 1 22 0;
#X connect 12 0 14 0;
#X connect 12 0 15 0;
#X connect 14 0 23 0;
#X connect 15 0 12 1;
#X connect 16 0 10 1;
#X connect 17 0 7 0;
#X connect 17 1 8 1;
#X connect 17 2 5 0;
#X connect 17 3 10 0;
#X connect 18 0 12 1;
#X connect 19 0 1 0;
#X connect 19 1 18 0;
#X connect 22 0 12 0;
#X connect 22 1 2 1;
#X connect 22 2 3 1;
#X connect 23 0 2 0;
#X connect 23 1 3 0;
#X connect 24 0 25 0;
#X connect 25 0 26 0;
#X connect 26 0 17 0;
#X restore 10 122 pd inputSensors;
#X obj 170 115 audio_disto;
#X obj 169 45 audio_pitchshift;
#N canvas 620 214 588 513 synth 0;
#X obj 17 15 inlet;
#X obj 245 363 player_0 4;
#X obj 17 275 player_0 0;
#X obj 74 297 player_0 1;
#X obj 131 319 player_0 2;
#X obj 416 429 player_0 7;
#X obj 188 341 player_0 3;
#X obj 301 385 player_0 5;
#X obj 359 407 player_0 6;
#X obj 17 121 selector 0;
#X obj 302 226 selector 5;
#X obj 131 163 selector 2;
#X obj 188 184 selector 3;
#X obj 74 142 selector 1;
#X obj 416 268 selector 7;
#X obj 359 247 selector 6;
#X obj 245 205 selector 4;
#X obj 17 212 synth-xylophone 0;
#N canvas 213 53 426 713 selector_2 1;
#X obj 20 -268 inlet;
#X obj 20 -223 unpack float float;
#X obj 168 341 outlet;
#X obj 20 -201 trigger bang float;
#X obj 20 74 trigger float float;
#X obj 59 -112 loadbang;
#X obj 20 -66 float 0;
#X obj 20 312 pack float float;
#X obj 20 264 trigger bang float;
#X obj 20 341 outlet;
#X obj 20 288 float 0;
#X obj 20 -179 float 0;
#X text 64 -269 ID - Value;
#X msg 296 201 1;
#X msg 195 201 0;
#X obj 20 194 - 0;
#X text -29 194 Offset;
#X obj 20 -135 > 0;
#X obj 131 99 <= 0;
#X obj 20 -89 onebang;
#X obj 131 143 onebang;
#X obj 131 121 sel 1;
#X obj 20 -112 sel 1;
#X obj 131 165 trigger bang bang bang;
#X obj 35 165 r threshold;
#X obj 152 74 r threshold;
#X obj 35 -157 r threshold;
#X obj 280 341 s \$1-ON_OFF;
#X obj 20 28 route 512;
#X msg 260 201 512;
#X connect 0 0 1 0;
#X connect 1 0 3 0;
#X connect 1 1 11 1;
#X connect 3 0 11 0;
#X connect 3 1 6 1;
#X connect 4 0 15 0;
#X connect 4 1 18 0;
#X connect 5 0 19 1;
#X connect 7 0 9 0;
#X connect 8 0 10 0;
#X connect 8 1 7 1;
#X connect 10 0 7 0;
#X connect 11 0 17 0;
#X connect 13 0 27 0;
#X connect 14 0 8 0;
#X connect 14 0 27 0;
#X connect 15 0 8 0;
#X connect 17 0 22 0;
#X connect 18 0 21 0;
#X connect 19 0 6 0;
#X connect 20 0 23 0;
#X connect 21 0 20 0;
#X connect 22 0 19 0;
#X connect 23 1 14 0;
#X connect 23 2 29 0;
#X connect 24 0 15 1;
#X connect 25 0 18 1;
#X connect 26 0 17 1;
#X connect 28 0 4 0;
#X connect 28 1 2 0;
#X connect 29 0 28 1;
#X restore 113 64 pd selector_2;
#X obj 74 232 synth-xylophone 1;
#X obj 131 252 synth-xylophone 2;
#X obj 188 272 synth-xylophone 3;
#X obj 245 292 synth-xylophone 4;
#X obj 302 312 synth-xylophone 5;
#X obj 359 332 synth-xylophone 6;
#X obj 416 352 synth-xylophone 7;
#X connect 0 0 9 0;
#X connect 9 0 17 0;
#X connect 9 1 13 0;
#X connect 10 0 23 0;
#X connect 10 1 15 0;
#X connect 11 0 20 0;
#X connect 11 1 12 0;
#X connect 12 0 21 0;
#X connect 12 1 16 0;
#X connect 13 0 19 0;
#X connect 13 1 11 0;
#X connect 14 0 25 0;
#X connect 15 0 24 0;
#X connect 15 1 14 0;
#X connect 16 0 22 0;
#X connect 16 1 10 0;
#X restore 10 148 pd synth;
#X obj 10 226 hsl 64 15 0 1 0 0 empty empty empty -2 -8 0 10 -257985
-1 -1 0 1;
#X msg 10 272 \; threshold 0.1 \; materials 1 \; tempo 10 \; decay
5 \; atack 2 \; slope 2000 \;;
#X msg 10 373 \; threshold 0.1 \; materials 1 \; tempo 15 \; decay
350 \; atack 300 \; slope 2000 \;;
#X obj 339 406 s INIT_BP;
#X obj 339 385 bng 15 250 50 0 empty empty empty 17 7 0 10 -262144
-1 -1;
#X obj 171 165 dac;
#N canvas 842 128 422 433 gem_matrix 0;
#X obj -166 -95 inlet;
#X obj -166 -24 trigger bang bang;
#X obj -166 -71 select 1 0;
#X obj 187 51 i;
#X obj 84 -17 + 1;
#X obj 40 -41 until;
#X obj 40 7 trigger float float float;
#N canvas 358 288 996 344 subpatch 0;
#X obj 720 0 pixel 12;
#X obj 540 220 pixel 185;
#X obj 120 0 pixel 2;
#X obj 180 0 pixel 3;
#X obj 240 0 pixel 4;
#X obj 300 0 pixel 5;
#X obj 360 0 pixel 6;
#X obj 420 0 pixel 7;
#X obj 480 0 pixel 8;
#X obj 540 0 pixel 9;
#X obj 600 0 pixel 10;
#X obj 660 0 pixel 11;
#X obj 780 0 pixel 13;
#X obj 840 0 pixel 14;
#X obj 900 0 pixel 15;
#X obj 0 20 pixel 16;
#X obj 59 19 pixel 17;
#X obj 120 20 pixel 18;
#X obj 180 20 pixel 19;
#X obj 240 20 pixel 20;
#X obj 300 20 pixel 21;
#X obj 360 20 pixel 22;
#X obj 420 20 pixel 23;
#X obj 480 20 pixel 24;
#X obj 540 20 pixel 25;
#X obj 600 20 pixel 26;
#X obj 660 20 pixel 27;
#X obj 720 20 pixel 28;
#X obj 780 20 pixel 29;
#X obj 840 20 pixel 30;
#X obj 900 20 pixel 31;
#X obj 0 40 pixel 32;
#X obj 60 40 pixel 33;
#X obj 120 40 pixel 34;
#X obj 180 40 pixel 35;
#X obj 240 40 pixel 36;
#X obj 300 40 pixel 37;
#X obj 360 40 pixel 38;
#X obj 420 40 pixel 39;
#X obj 480 40 pixel 40;
#X obj 540 40 pixel 41;
#X obj 600 40 pixel 42;
#X obj 660 40 pixel 43;
#X obj 720 40 pixel 44;
#X obj 780 40 pixel 45;
#X obj 840 40 pixel 46;
#X obj 900 40 pixel 47;
#X obj 0 60 pixel 48;
#X obj 60 60 pixel 49;
#X obj 120 60 pixel 50;
#X obj 180 60 pixel 51;
#X obj 240 60 pixel 52;
#X obj 300 60 pixel 53;
#X obj 360 60 pixel 54;
#X obj 420 60 pixel 55;
#X obj 480 60 pixel 56;
#X obj 540 60 pixel 57;
#X obj 600 60 pixel 58;
#X obj 660 60 pixel 59;
#X obj 720 60 pixel 60;
#X obj 780 60 pixel 61;
#X obj 840 60 pixel 62;
#X obj 900 60 pixel 63;
#X obj 0 80 pixel 64;
#X obj 60 80 pixel 65;
#X obj 120 80 pixel 66;
#X obj 180 80 pixel 67;
#X obj 240 80 pixel 68;
#X obj 300 80 pixel 69;
#X obj 360 80 pixel 70;
#X obj 420 80 pixel 71;
#X obj 480 80 pixel 72;
#X obj 540 80 pixel 73;
#X obj 600 80 pixel 74;
#X obj 660 80 pixel 75;
#X obj 720 80 pixel 76;
#X obj 780 80 pixel 77;
#X obj 840 80 pixel 78;
#X obj 900 80 pixel 79;
#X obj 0 100 pixel 80;
#X obj 60 100 pixel 81;
#X obj 120 100 pixel 82;
#X obj 180 100 pixel 83;
#X obj 240 100 pixel 84;
#X obj 300 100 pixel 85;
#X obj 360 100 pixel 86;
#X obj 420 100 pixel 87;
#X obj 480 100 pixel 88;
#X obj 540 100 pixel 89;
#X obj 600 100 pixel 90;
#X obj 660 100 pixel 91;
#X obj 720 100 pixel 92;
#X obj 780 100 pixel 93;
#X obj 840 100 pixel 94;
#X obj 900 100 pixel 95;
#X obj 0 120 pixel 96;
#X obj 60 120 pixel 97;
#X obj 120 120 pixel 98;
#X obj 180 120 pixel 99;
#X obj 240 120 pixel 100;
#X obj 300 120 pixel 101;
#X obj 360 120 pixel 102;
#X obj 420 120 pixel 103;
#X obj 480 120 pixel 104;
#X obj 540 120 pixel 105;
#X obj 600 120 pixel 106;
#X obj 660 120 pixel 107;
#X obj 720 120 pixel 108;
#X obj 780 120 pixel 109;
#X obj 840 120 pixel 110;
#X obj 900 120 pixel 111;
#X obj 0 140 pixel 112;
#X obj 60 140 pixel 113;
#X obj 120 140 pixel 114;
#X obj 180 140 pixel 115;
#X obj 240 140 pixel 116;
#X obj 300 140 pixel 117;
#X obj 360 140 pixel 118;
#X obj 420 140 pixel 119;
#X obj 480 140 pixel 120;
#X obj 540 140 pixel 121;
#X obj 600 140 pixel 122;
#X obj 660 140 pixel 123;
#X obj 720 140 pixel 124;
#X obj 780 140 pixel 125;
#X obj 840 140 pixel 126;
#X obj 900 140 pixel 127;
#X obj 0 160 pixel 128;
#X obj 60 160 pixel 129;
#X obj 120 160 pixel 130;
#X obj 180 160 pixel 131;
#X obj 240 160 pixel 132;
#X obj 300 160 pixel 133;
#X obj 360 160 pixel 134;
#X obj 420 160 pixel 135;
#X obj 480 160 pixel 136;
#X obj 540 160 pixel 137;
#X obj 600 160 pixel 138;
#X obj 660 160 pixel 139;
#X obj 720 160 pixel 140;
#X obj 780 160 pixel 141;
#X obj 840 160 pixel 142;
#X obj 900 160 pixel 143;
#X obj 0 180 pixel 144;
#X obj 60 180 pixel 145;
#X obj 120 180 pixel 146;
#X obj 180 180 pixel 147;
#X obj 240 180 pixel 148;
#X obj 300 180 pixel 149;
#X obj 360 180 pixel 150;
#X obj 420 180 pixel 151;
#X obj 480 180 pixel 152;
#X obj 540 180 pixel 153;
#X obj 600 180 pixel 154;
#X obj 660 180 pixel 155;
#X obj 720 180 pixel 156;
#X obj 780 180 pixel 157;
#X obj 840 180 pixel 158;
#X obj 900 180 pixel 159;
#X obj 0 200 pixel 160;
#X obj 60 200 pixel 161;
#X obj 120 200 pixel 162;
#X obj 180 200 pixel 163;
#X obj 240 200 pixel 164;
#X obj 300 200 pixel 165;
#X obj 360 200 pixel 166;
#X obj 420 200 pixel 167;
#X obj 480 200 pixel 168;
#X obj 540 200 pixel 169;
#X obj 600 200 pixel 170;
#X obj 660 200 pixel 171;
#X obj 720 200 pixel 172;
#X obj 780 200 pixel 173;
#X obj 840 200 pixel 174;
#X obj 900 200 pixel 175;
#X obj 0 220 pixel 176;
#X obj 60 220 pixel 177;
#X obj 120 220 pixel 178;
#X obj 180 220 pixel 179;
#X obj 240 220 pixel 180;
#X obj 300 220 pixel 181;
#X obj 360 220 pixel 182;
#X obj 420 220 pixel 183;
#X obj 480 220 pixel 184;
#X obj 600 220 pixel 186;
#X obj 660 220 pixel 187;
#X obj 720 220 pixel 188;
#X obj 780 220 pixel 189;
#X obj 840 220 pixel 190;
#X obj 900 220 pixel 191;
#X obj 0 240 pixel 192;
#X obj 60 240 pixel 193;
#X obj 120 240 pixel 194;
#X obj 180 240 pixel 195;
#X obj 240 240 pixel 196;
#X obj 300 240 pixel 197;
#X obj 360 240 pixel 198;
#X obj 420 240 pixel 199;
#X obj 480 240 pixel 200;
#X obj 540 240 pixel 201;
#X obj 600 240 pixel 202;
#X obj 660 240 pixel 203;
#X obj 720 240 pixel 204;
#X obj 780 240 pixel 205;
#X obj 840 240 pixel 206;
#X obj 900 240 pixel 207;
#X obj 0 260 pixel 208;
#X obj 60 260 pixel 209;
#X obj 120 260 pixel 210;
#X obj 180 260 pixel 211;
#X obj 240 260 pixel 212;
#X obj 300 260 pixel 213;
#X obj 360 260 pixel 214;
#X obj 420 260 pixel 215;
#X obj 480 260 pixel 216;
#X obj 540 260 pixel 217;
#X obj 600 260 pixel 218;
#X obj 660 260 pixel 219;
#X obj 720 260 pixel 220;
#X obj 780 260 pixel 221;
#X obj 840 260 pixel 222;
#X obj 900 260 pixel 223;
#X obj 0 280 pixel 224;
#X obj 60 280 pixel 225;
#X obj 120 280 pixel 226;
#X obj 180 280 pixel 227;
#X obj 240 280 pixel 228;
#X obj 300 280 pixel 229;
#X obj 360 280 pixel 230;
#X obj 420 280 pixel 231;
#X obj 480 280 pixel 232;
#X obj 540 280 pixel 233;
#X obj 600 280 pixel 234;
#X obj 660 280 pixel 235;
#X obj 720 280 pixel 236;
#X obj 780 280 pixel 237;
#X obj 840 280 pixel 238;
#X obj 900 280 pixel 239;
#X obj 0 300 pixel 240;
#X obj 60 300 pixel 241;
#X obj 120 300 pixel 242;
#X obj 180 300 pixel 243;
#X obj 240 300 pixel 244;
#X obj 300 300 pixel 245;
#X obj 360 300 pixel 246;
#X obj 420 300 pixel 247;
#X obj 480 300 pixel 248;
#X obj 540 300 pixel 249;
#X obj 600 300 pixel 250;
#X obj 660 300 pixel 251;
#X obj 720 300 pixel 252;
#X obj 780 300 pixel 253;
#X obj 840 300 pixel 254;
#X obj 900 300 pixel 255;
#X obj 60 0 pixel 1;
#X obj 0 1 pixel 0;
#X restore 40 279 pd subpatch;
#X obj 40 147 s pd-subpatch;
#X msg 40 124 obj \$2 \$3 pixel \$1;
#X obj 187 73 * 20;
#X obj 40 101 pack float float float;
#X obj 113 74 * 60;
#X msg 103 -48 0;
#X obj 40 -17 float;
#X obj 40 -71 trigger f b;
#X text 67 -96 <-Constructor;
#X msg -153 249 debug 1;
#X obj -153 226 gemhead;
#X obj -166 279 light 1 1 1;
#X msg -138 -48 destroy \, reset;
#X msg -166 23 create \, 1 \, lighting 1;
#X msg 40 -94 256;
#X obj 113 31 % 16;
#X obj 187 29 / 16;
#X obj -166 203 translateXYZ 50 0 0;
#X obj -166 99 gemwin 50;
#X obj -166 153 gemhead 30;
#X msg -66 1 dimen 800 600;
#X obj 32 209 hsl 128 15 1.8 180 1 0 1 empty empty 0 -2 0 4 -3 -260097
-1 0 0;
#X obj -166 179 rotateXYZ 27 -85 0;
#X connect 0 0 2 0;
#X connect 1 0 21 0;
#X connect 1 1 28 0;
#X connect 2 0 1 0;
#X connect 2 1 20 0;
#X connect 3 0 10 0;
#X connect 4 0 14 1;
#X connect 5 0 14 0;
#X connect 6 0 11 0;
#X connect 6 1 23 0;
#X connect 6 2 24 0;
#X connect 9 0 8 0;
#X connect 10 0 11 2;
#X connect 11 0 9 0;
#X connect 12 0 11 1;
#X connect 13 0 14 1;
#X connect 14 0 4 0;
#X connect 14 0 6 0;
#X connect 15 0 5 0;
#X connect 15 1 13 0;
#X connect 17 0 19 0;
#X connect 18 0 17 0;
#X connect 20 0 26 0;
#X connect 21 0 26 0;
#X connect 22 0 15 0;
#X connect 23 0 12 0;
#X connect 24 0 3 0;
#X connect 25 0 19 0;
#X connect 27 0 30 0;
#X connect 28 0 26 0;
#X connect 30 0 25 0;
#X restore 10 202 pd gem_matrix;
#X obj 10 248 s threshold;
#X msg 28 67 close;
#X msg 10 23 devices;
#X msg 19 45 open 0;
#X obj 10 96 comport 0 115200;
#X msg 339 90 \; materials \$1 \;;
#X msg 339 149 \; tempo \$1 \;;
#X msg 339 207 \; decay \$1 \;;
#X msg 339 265 \; atack \$1 \;;
#X msg 339 323 \; slope \$1 \;;
#X connect 0 0 13 0;
#X connect 1 0 4 0;
#X connect 1 0 2 0;
#X connect 1 0 27 0;
#X connect 2 0 3 0;
#X connect 3 0 1 1;
#X connect 5 0 30 0;
#X connect 6 0 31 0;
#X connect 7 0 21 0;
#X connect 8 0 1 0;
#X connect 9 0 29 0;
#X connect 10 0 28 0;
#X connect 11 0 14 0;
#X connect 12 0 20 0;
#X connect 12 0 20 1;
#X connect 13 0 12 0;
#X connect 15 0 22 0;
#X connect 19 0 18 0;
#X connect 23 0 26 0;
#X connect 24 0 26 0;
#X connect 25 0 26 0;
#X connect 26 0 11 0;
