#N canvas 845 100 398 503 10;
#X obj 122 306 r \$1-metro;
#X obj 122 330 t bang bang;
#X obj 141 213 i;
#X obj 141 107 \$1;
#X obj 141 83 loadbang;
#X obj 59 463 cube 0.3;
#X obj 239 32 r \$1-pression;
#X obj 239 130 change;
#X obj 59 279 scaleXYZ 1 1 1;
#X obj 239 174 t f f;
#X obj 59 426 color 1 1 1;
#X msg 122 380 1 0 0;
#X msg 185 380 1 1 1;
#X obj 59 32 gemhead;
#X obj 185 354 pipe 50;
#X obj 141 189 / 16;
#X obj 96 189 % 16;
#X obj 59 244 translateXYZ 0 0 -5;
#X obj 96 213 - 7.5;
#X obj 266 227 - 5;
#X obj 59 57 rotate -50 1 0 0;
#X obj 266 203 / 4;
#X obj 239 152 * 8;
#X obj 141 132 - 255;
#X obj 141 155 abs;
#X obj 96 133 - 1;
#X connect 0 0 1 0;
#X connect 1 0 11 0;
#X connect 1 1 14 0;
#X connect 2 0 17 2;
#X connect 3 0 23 0;
#X connect 3 0 25 0;
#X connect 4 0 3 0;
#X connect 6 0 7 0;
#X connect 7 0 22 0;
#X connect 8 0 10 0;
#X connect 9 0 8 3;
#X connect 9 1 21 0;
#X connect 10 0 5 0;
#X connect 11 0 10 1;
#X connect 12 0 10 1;
#X connect 13 0 20 0;
#X connect 14 0 12 0;
#X connect 15 0 2 0;
#X connect 16 0 18 0;
#X connect 17 0 8 0;
#X connect 18 0 17 1;
#X connect 19 0 17 3;
#X connect 20 0 17 0;
#X connect 21 0 19 0;
#X connect 22 0 9 0;
#X connect 23 0 24 0;
#X connect 24 0 15 0;
#X connect 25 0 16 0;
