#N canvas 619 186 409 395 10;
#X obj 8 219 *~ 1;
#N canvas 705 236 528 433 gaga 1;
#X obj 274 -29 mtof;
#X obj 198 298 *~;
#X obj 196 208 osc~;
#X obj 241 111 * 2;
#X obj 196 139 pack f f;
#X obj 240 88 f;
#X obj 197 235 *~ 0.3;
#X obj 196 188 line~;
#X msg 196 164 \$1 \, \$2 2;
#X obj 124 140 pack f f;
#X obj 168 89 f;
#X obj 125 236 *~ 0.3;
#X obj 124 189 line~;
#X msg 124 165 \$1 \, \$2 2;
#X obj 124 209 osc~;
#X obj 168 112 * 4;
#X obj 308 118 ead~ 10 1000;
#X obj 169 -77 inlet;
#X obj 199 323 outlet~;
#X obj 169 -53 trigger bang float;
#X obj 349 46 r atack;
#X obj 372 67 r decay;
#X connect 0 0 5 0;
#X connect 0 0 10 0;
#X connect 1 0 18 0;
#X connect 2 0 6 0;
#X connect 3 0 4 1;
#X connect 4 0 8 0;
#X connect 5 0 3 0;
#X connect 5 0 4 0;
#X connect 6 0 1 0;
#X connect 7 0 2 0;
#X connect 8 0 7 0;
#X connect 9 0 13 0;
#X connect 10 0 9 0;
#X connect 10 0 15 0;
#X connect 11 0 1 0;
#X connect 12 0 14 0;
#X connect 13 0 12 0;
#X connect 14 0 11 0;
#X connect 15 0 9 1;
#X connect 16 0 1 1;
#X connect 17 0 19 0;
#X connect 19 0 16 0;
#X connect 19 1 0 0;
#X connect 20 0 16 1;
#X connect 21 0 16 2;
#X restore 8 197 pd gaga;
#X obj 23 -94 inlet;
#X obj 23 -57 unpack float float;
#X obj 200 104 metro 1000;
#X obj 287 -94 r tempo;
#X text 69 -95 ID - Value;
#X obj 23 -24 trigger float float float;
#X obj 221 134 makesymbol %s-metro;
#X obj 200 161 send;
#X obj 287 37 t b f;
#X obj 200 -94 r \$1-ON_OFF;
#X obj 128 73 line;
#X obj 287 67 * 100;
#X obj 128 50 pack \$1 5;
#X obj 8 252 throw~ signal;
#X obj 8 175 f;
#X connect 0 0 15 0;
#X connect 1 0 0 0;
#X connect 2 0 3 0;
#X connect 3 0 7 0;
#X connect 3 1 14 0;
#X connect 4 0 9 0;
#X connect 4 0 16 0;
#X connect 5 0 10 0;
#X connect 7 0 16 1;
#X connect 7 1 13 0;
#X connect 7 2 8 0;
#X connect 8 0 9 1;
#X connect 10 0 13 0;
#X connect 10 1 13 1;
#X connect 11 0 4 0;
#X connect 13 0 4 1;
#X connect 14 0 12 0;
#X connect 16 0 1 0;
