#N canvas 433 184 252 244 10;
#X obj 58 92 inlet;
#X obj 170 92 inlet;
#X obj 110 92 loadbang;
#X obj 57 204 max;
#X obj 110 249 outlet;
#X obj 110 175 oneshot;
#X msg 110 152 clear;
#X obj 110 204 f 0;
#X floatatom 17 93 5 0 0 0 - - -, f 5;
#X floatatom 157 249 5 0 0 0 - - -, f 5;
#X obj 199 118 bng 15 250 50 0 empty empty empty 17 7 0 10 -262144
-1 -1;
#X connect 0 0 3 0;
#X connect 1 0 6 0;
#X connect 2 0 6 0;
#X connect 3 0 7 0;
#X connect 5 0 7 0;
#X connect 6 0 5 0;
#X connect 7 0 3 1;
#X connect 7 0 4 0;
#X connect 7 0 9 0;
#X connect 8 0 3 0;
#X connect 10 0 6 0;
