#N canvas 1 57 450 382 10;
#X obj 40 18 inlet;
#X obj 226 120 moses 0;
#X obj 40 134 abs;
#X text 88 18 input range: -1 to 1;
#X text 180 292 output range: -1 to 1;
#X text 18 320 (C) Copyright 2006-2007 Free Software Foundation;
#X text 209 337 released under the GNU GPLv3 or later;
#X obj 97 178 log;
#X obj 132 159 log;
#X msg 132 125 10;
#X obj 132 179 * 2;
#X obj 97 200 +;
#X obj 97 224 /;
#X obj 40 155 moses 0.01;
#X obj 40 40 trigger float float;
#X obj 132 104 loadbang;
#X obj 97 265 *;
#X obj 97 291 outlet;
#X obj 265 141 bang;
#X obj 226 141 bang;
#X msg 265 161 1;
#X msg 226 161 -1;
#X connect 0 0 14 0;
#X connect 1 0 19 0;
#X connect 1 1 18 0;
#X connect 2 0 13 0;
#X connect 7 0 11 0;
#X connect 8 0 10 0;
#X connect 9 0 8 0;
#X connect 10 0 11 1;
#X connect 10 0 12 1;
#X connect 11 0 12 0;
#X connect 12 0 16 0;
#X connect 13 0 16 0;
#X connect 13 1 7 0;
#X connect 14 0 2 0;
#X connect 14 1 1 0;
#X connect 15 0 9 0;
#X connect 16 0 17 0;
#X connect 18 0 20 0;
#X connect 19 0 21 0;
#X connect 20 0 16 1;
#X connect 21 0 16 1;
