#N canvas 942 323 355 444 10;
#X obj 74 25 inlet;
#X obj 74 106 select P Q R S T U V W;
#X msg 106 175 256;
#X msg 122 196 288;
#X msg 138 217 320;
#X msg 154 238 352;
#X msg 170 259 384;
#X msg 186 280 416;
#X msg 74 133 448;
#X msg 90 154 480;
#X obj 74 297 change;
#X obj 204 377 outlet;
#X text 72 4 posY;
#X obj 113 25 inlet;
#X text 111 4 posX;
#X obj 74 74 text get mapping 0 1;
#X obj 35 25 inlet;
#X obj 219 25 r \$1-TRANSPOSITION;
#X obj 204 342 + 0;
#X obj 219 270 t b f;
#X connect 0 0 15 0;
#X connect 1 0 8 0;
#X connect 1 1 9 0;
#X connect 1 2 2 0;
#X connect 1 3 3 0;
#X connect 1 4 4 0;
#X connect 1 5 5 0;
#X connect 1 6 6 0;
#X connect 1 7 7 0;
#X connect 2 0 10 0;
#X connect 3 0 10 0;
#X connect 4 0 10 0;
#X connect 5 0 10 0;
#X connect 6 0 10 0;
#X connect 7 0 10 0;
#X connect 8 0 10 0;
#X connect 9 0 10 0;
#X connect 10 0 18 0;
#X connect 13 0 15 1;
#X connect 15 0 1 0;
#X connect 16 0 1 0;
#X connect 17 0 19 0;
#X connect 18 0 11 0;
#X connect 19 0 18 0;
#X connect 19 1 18 1;
