#N canvas 265 130 660 420 10;
#X obj 156 270 until;
#X obj 156 293 list append;
#X obj 237 346 bang;
#X obj 156 248 trigger b l;
#X msg 337 308 \; pd dsp \$1;
#X obj 156 177 oscparse;
#X msg 128 126 listen 0;
#X text 190 126 stop listening;
#X obj 128 72 select 0 1;
#X obj 337 281 route dsp;
#X obj 411 281 route volume;
#X obj 156 200 route list;
#X obj 128 28 inlet;
#X msg 199 72 set listen \$1;
#X obj 199 28 loadbang;
#X obj 199 50 \$1;
#X obj 128 50 pipe 10;
#X obj 156 375 s OSC_ALL_SYNTH;
#X obj 15 375 print OSC_ALL_SYNTH;
#X obj 15 270 timer;
#X obj 47 248 bang;
#X obj 15 318 f;
#X obj 47 319 f;
#X obj 15 294 t f b;
#X obj 15 345 -;
#X msg 156 103 listen 7771;
#X obj 156 224 route sensors;
#X text 237 103 listen on port 7771;
#X obj 156 154 netreceive -u -b 7771;
#X obj 156 320 list split 5;
#X obj 501 281 route threshold;
#X msg 501 308 \; threshold \$1;
#X msg 411 308 \; volume \$1;
#X obj 320 348 print OSC_COMMANDS;
#X connect 0 0 1 0;
#X connect 1 0 29 0;
#X connect 2 0 0 1;
#X connect 3 0 0 0;
#X connect 3 1 1 1;
#X connect 5 0 11 0;
#X connect 6 0 28 0;
#X connect 8 0 6 0;
#X connect 8 1 25 0;
#X connect 9 0 4 0;
#X connect 9 1 10 0;
#X connect 10 0 32 0;
#X connect 10 1 30 0;
#X connect 11 0 26 0;
#X connect 12 0 16 0;
#X connect 13 0 25 0;
#X connect 14 0 15 0;
#X connect 15 0 13 0;
#X connect 16 0 8 0;
#X connect 19 0 23 0;
#X connect 20 0 19 1;
#X connect 21 0 22 1;
#X connect 21 0 24 0;
#X connect 22 0 24 1;
#X connect 23 0 21 0;
#X connect 23 1 22 0;
#X connect 24 0 18 0;
#X connect 25 0 28 0;
#X connect 26 0 3 0;
#X connect 26 1 9 0;
#X connect 28 0 5 0;
#X connect 29 0 17 0;
#X connect 29 1 1 1;
#X connect 29 2 2 0;
#X connect 30 0 31 0;
