#N canvas 359 223 805 420 10;
#X obj 156 270 until;
#X obj 156 293 list append;
#X obj 225 349 bang;
#X obj 156 248 trigger b l;
#X msg 267 268 \; pd dsp \$1;
#X obj 156 177 oscparse;
#X obj 156 153 netreceive -u -b;
#X msg 128 126 listen 0;
#X text 187 125 stop listening;
#X obj 128 72 select 0 1;
#X obj 267 241 route dsp;
#X obj 341 241 route volume;
#X obj 156 224 route sensor;
#X obj 156 200 route list;
#X obj 128 28 inlet;
#X obj 156 320 list split 3;
#X text 257 103 listen on port 8501;
#X msg 199 72 set listen \$1;
#X obj 199 28 loadbang;
#X obj 199 50 \$1;
#X obj 128 50 pipe 10;
#X obj 432 241 route mode;
#X obj 156 375 s OSC_ALL_SYNTH;
#X obj 15 375 print OSC_ALL_SYNTH;
#X msg 341 268 \; VOLUME \$1;
#X msg 432 268 \; MODE \$1;
#X obj 15 270 timer;
#X obj 47 248 bang;
#X obj 15 318 f;
#X obj 47 319 f;
#X obj 15 294 t f b;
#X obj 15 345 -;
#X msg 156 103 listen 57120;
#X obj 511 241 route transposition;
#X msg 511 268 \; 0-SHIFTING \$1;
#X obj 92 258 print;
#X connect 0 0 1 0;
#X connect 1 0 15 0;
#X connect 2 0 0 1;
#X connect 3 0 0 0;
#X connect 3 1 1 1;
#X connect 5 0 13 0;
#X connect 6 0 5 0;
#X connect 7 0 6 0;
#X connect 9 0 7 0;
#X connect 9 1 32 0;
#X connect 10 0 4 0;
#X connect 10 1 11 0;
#X connect 11 0 24 0;
#X connect 11 1 21 0;
#X connect 12 0 3 0;
#X connect 12 1 10 0;
#X connect 13 0 12 0;
#X connect 14 0 20 0;
#X connect 15 0 22 0;
#X connect 15 1 1 1;
#X connect 15 2 2 0;
#X connect 17 0 32 0;
#X connect 18 0 19 0;
#X connect 19 0 17 0;
#X connect 20 0 9 0;
#X connect 21 0 25 0;
#X connect 21 1 33 0;
#X connect 26 0 30 0;
#X connect 27 0 26 1;
#X connect 28 0 29 1;
#X connect 28 0 31 0;
#X connect 29 0 31 1;
#X connect 30 0 28 0;
#X connect 30 1 29 0;
#X connect 31 0 23 0;
#X connect 32 0 6 0;
#X connect 33 0 34 0;
