#N canvas 643 119 660 420 10;
#X obj 151 230 until;
#X obj 151 253 list append;
#X obj 232 306 bang;
#X msg 267 238 \; pd dsp \$1;
#X obj 151 -1 loadbang;
#X obj 151 47 \$1;
#X obj 115 333 s OSC_ALL_SYNTH;
#X obj 15 375 print OSC_ALL_SYNTH;
#X obj 15 270 timer;
#X obj 47 248 bang;
#X obj 15 318 f;
#X obj 47 319 f;
#X obj 15 294 t f b;
#X obj 15 345 -;
#X obj 151 280 list split 5;
#X msg 431 238 \; threshold \$1;
#X msg 341 238 \; volume \$1;
#X msg 98 70 status;
#X msg 151 94 port 7771;
#X msg 151 69 set port \$1;
#X obj 411 5 import mrpeach;
#X obj 151 190 t b l;
#X obj 151 23 del 200;
#X obj 151 144 unpackOSC;
#X obj 151 122 udpreceive 7771;
#X obj 151 166 OSCroute /sensors /dsp /volume /threshold;
#X connect 0 0 1 0;
#X connect 1 0 14 0;
#X connect 2 0 0 1;
#X connect 4 0 22 0;
#X connect 5 0 19 0;
#X connect 8 0 12 0;
#X connect 9 0 8 1;
#X connect 10 0 11 1;
#X connect 10 0 13 0;
#X connect 11 0 13 1;
#X connect 12 0 10 0;
#X connect 12 1 11 0;
#X connect 13 0 7 0;
#X connect 14 0 6 0;
#X connect 14 1 1 1;
#X connect 14 2 2 0;
#X connect 17 0 24 0;
#X connect 18 0 24 0;
#X connect 19 0 18 0;
#X connect 21 0 0 0;
#X connect 21 1 1 1;
#X connect 22 0 5 0;
#X connect 23 0 25 0;
#X connect 24 0 23 0;
#X connect 25 0 21 0;
#X connect 25 1 3 0;
#X connect 25 2 16 0;
#X connect 25 3 15 0;
