#N canvas 172 85 786 651 10;
#X obj 325 612 throw~ signal;
#X obj 324 512 bob~;
#X obj 165 63 spigot;
#X text 132 176 posX;
#X text 251 176 posY;
#X obj 224 198 i;
#X floatatom 148 263 5 0 0 0 - - -, f 5;
#X obj 163 347 osc~;
#X msg 298 198 0;
#X obj 407 336 / 25;
#X obj 407 293 loadbang;
#X msg 407 314 10;
#X obj 407 359 line~;
#X floatatom 224 346 5 1 10 0 - - -, f 5;
#X msg 224 367 oversample \$1;
#X obj 224 301 loadbang;
#X msg 224 324 2;
#X obj 165 16 r OSC_ALL_SYNTH;
#X obj 165 85 route \$1;
#X obj 298 16 r \$2-SYNTH_ON_OFF;
#X obj 298 174 sel 0;
#X msg 93 147 symbol W;
#X obj 668 14 r SYNTH_SUMM;
#X obj 698 241 spigot;
#X msg 480 194 0;
#X obj 480 172 bang;
#X obj 480 148 moses 0;
#X obj 343 152 > 0;
#X obj 343 196 s \$1-STATE;
#X obj 616 350 line~;
#X obj 519 171 iir 10;
#X obj 325 568 *~;
#X obj 340 315 mtof;
#X obj 340 359 line~;
#X obj 409 16 r \$2-MIDI;
#X obj 698 265 + 1;
#X obj 616 301 / 1;
#X obj 486 356 line;
#X obj 165 107 unpack float float float float;
#X obj 165 176 / 4;
#X obj 224 176 / 4;
#X obj 165 199 i;
#X obj 343 174 change;
#X msg 486 380 saturation \$1;
#X floatatom 373 268 5 0 0 0 - - -, f 5;
#X floatatom 601 206 5 0 0 0 - - -, f 5;
#X floatatom 500 311 5 0 0 0 - - -, f 5;
#X obj 486 287 * 0.005;
#X obj 324 537 *~ 0.2;
#X obj 411 233 print \$1-OFF;
#X obj 165 147 iir 5;
#X obj 224 147 iir 5;
#X obj 615 241 * 1e-05, f 11;
#X obj 486 334 pack f 200;
#X obj 616 328 pack f 200;
#X obj 340 337 pack f 50;
#X obj 454 84 r threshold;
#X obj 364 124 change;
#X obj 43 80 print;
#X obj 43 17 bng 15 250 50 0 empty empty empty 17 7 0 10 -262144 -1
-1;
#X obj 119 16 inlet;
#X obj 43 37 \$1;
#X obj 80 17 bng 15 250 50 0 empty empty empty 17 7 0 10 -262144 -1
-1;
#X obj 80 37 \$2;
#X obj 132 232 labdoma_mapping;
#X obj 412 140 - 0;
#X connect 1 0 48 0;
#X connect 2 0 18 0;
#X connect 5 0 64 2;
#X connect 7 0 1 0;
#X connect 8 0 7 0;
#X connect 8 0 54 0;
#X connect 9 0 12 0;
#X connect 10 0 11 0;
#X connect 11 0 9 0;
#X connect 12 0 1 2;
#X connect 13 0 14 0;
#X connect 14 0 1 0;
#X connect 15 0 16 0;
#X connect 16 0 13 0;
#X connect 17 0 2 0;
#X connect 18 0 38 0;
#X connect 19 0 20 0;
#X connect 19 0 23 1;
#X connect 19 0 2 1;
#X connect 20 0 8 0;
#X connect 21 0 64 0;
#X connect 22 0 23 0;
#X connect 23 0 35 0;
#X connect 24 0 52 0;
#X connect 25 0 24 0;
#X connect 25 0 49 0;
#X connect 26 0 25 0;
#X connect 26 1 30 0;
#X connect 27 0 42 0;
#X connect 29 0 31 1;
#X connect 30 0 45 0;
#X connect 30 0 47 0;
#X connect 30 0 52 0;
#X connect 31 0 0 0;
#X connect 32 0 55 0;
#X connect 33 0 1 1;
#X connect 34 0 32 0;
#X connect 35 0 36 1;
#X connect 36 0 54 0;
#X connect 37 0 43 0;
#X connect 38 0 50 0;
#X connect 38 1 51 0;
#X connect 38 3 27 0;
#X connect 38 3 57 0;
#X connect 39 0 41 0;
#X connect 40 0 5 0;
#X connect 41 0 64 1;
#X connect 42 0 28 0;
#X connect 43 0 1 0;
#X connect 44 0 9 0;
#X connect 47 0 46 0;
#X connect 47 0 53 0;
#X connect 48 0 31 0;
#X connect 50 0 39 0;
#X connect 51 0 40 0;
#X connect 52 0 36 0;
#X connect 53 0 37 0;
#X connect 54 0 29 0;
#X connect 55 0 33 0;
#X connect 56 0 65 1;
#X connect 57 0 65 0;
#X connect 59 0 61 0;
#X connect 61 0 58 0;
#X connect 62 0 63 0;
#X connect 63 0 58 0;
#X connect 64 0 6 0;
#X connect 65 0 26 0;
