#N canvas 496 119 581 637 10;
#X obj 313 597 throw~ signal;
#X obj 312 489 line~;
#X obj 312 511 osc~;
#X msg 140 178 0;
#X obj 140 53 spigot;
#X obj 349 143 % 16;
#X text 379 142 posX;
#X text 466 143 posY;
#X obj 435 143 / 16;
#X obj 435 165 i;
#X floatatom 271 144 5 0 0 0 - - -, f 5;
#X obj 263 120 trigger float float float;
#X floatatom 349 165 5 0 0 0 - - -, f 5;
#X floatatom 462 168 5 0 0 0 - - -, f 5;
#X floatatom 324 423 5 0 0 0 - - -, f 5;
#X obj 263 163 change;
#X obj 140 97 unpack float float;
#X obj 140 6 r OSC_ALL_SYNTH;
#X msg 312 364 symbol W;
#X obj 29 6 r \$2-SYNTH_ON_OFF;
#X obj 29 283 print \$2-\$1-SYNTH;
#X obj 140 75 route \$1;
#X obj 312 394 labdoma_mapping \$2;
#X obj 38 59 sel 0;
#X obj 140 149 bang;
#X floatatom 195 143 5 0 0 0 - - -, f 5;
#X obj 140 126 moses 0;
#X obj 290 279 > 0;
#X obj 290 302 s \$1-STATE;
#X obj 239 6 r SYNTH_SUMM;
#X obj 239 374 t b f;
#X obj 312 573 *~;
#X obj 38 30 trigger float float;
#X text 257 97 <-- \$1-velociy \$2-matrixPosIdh;
#X obj 179 427 / 1;
#X obj 312 467 pack 0 60;
#X obj 500 11 curve_log;
#X obj 179 476 line~;
#X obj 500 34 curve_exp;
#X obj 179 185 iir 10;
#X obj 179 163 moses 300;
#X obj 179 207 / 300;
#X obj 179 256 trigger float float;
#X obj 239 350 * 0.1;
#X obj 179 351 * 0.001;
#X obj 179 454 pack 0 200;
#X obj 311 533 *~ 0.05;
#X connect 1 0 2 0;
#X connect 2 0 46 0;
#X connect 3 0 42 0;
#X connect 4 0 21 0;
#X connect 5 0 12 0;
#X connect 5 0 22 1;
#X connect 8 0 9 0;
#X connect 9 0 13 0;
#X connect 9 0 22 2;
#X connect 11 0 10 0;
#X connect 11 0 15 0;
#X connect 11 1 5 0;
#X connect 11 2 8 0;
#X connect 16 0 26 0;
#X connect 16 1 11 0;
#X connect 17 0 4 0;
#X connect 18 0 22 0;
#X connect 19 0 32 0;
#X connect 21 0 16 0;
#X connect 22 0 14 0;
#X connect 22 0 35 0;
#X connect 23 0 3 0;
#X connect 24 0 3 0;
#X connect 26 0 24 0;
#X connect 26 1 25 0;
#X connect 26 1 40 0;
#X connect 27 0 28 0;
#X connect 29 0 43 0;
#X connect 30 0 34 0;
#X connect 30 1 34 1;
#X connect 31 0 0 0;
#X connect 32 0 23 0;
#X connect 32 1 4 1;
#X connect 34 0 45 0;
#X connect 35 0 1 0;
#X connect 37 0 31 1;
#X connect 39 0 41 0;
#X connect 40 0 39 0;
#X connect 41 0 42 0;
#X connect 42 0 44 0;
#X connect 42 1 27 0;
#X connect 43 0 30 0;
#X connect 44 0 34 0;
#X connect 45 0 37 0;
#X connect 46 0 31 0;
