#N canvas 565 128 706 613 10;
#X obj 343 564 throw~ signal;
#X obj 342 464 bob~;
#X obj 121 53 spigot;
#X obj 350 151 % 16;
#X text 380 150 posX;
#X text 455 151 posY;
#X obj 424 151 / 16;
#X obj 424 173 i;
#X floatatom 285 152 5 0 0 0 - - -, f 5;
#X obj 277 128 trigger float float float;
#X floatatom 350 173 5 0 0 0 - - -, f 5;
#X floatatom 451 176 5 0 0 0 - - -, f 5;
#X floatatom 311 293 5 0 0 0 - - -, f 5;
#X obj 277 171 change;
#X obj 121 97 unpack float float;
#X obj 298 377 osc~;
#X msg 9 263 0;
#X floatatom 605 337 5 0 200 0 - - -, f 5;
#X obj 605 355 / 25;
#X obj 605 295 loadbang;
#X msg 605 316 10;
#X obj 605 376 line~;
#X floatatom 538 208 5 0 999 0 - - -, f 5;
#X msg 508 252 saturation \$1;
#X obj 538 164 loadbang;
#X obj 508 228 / 100;
#X floatatom 605 233 5 1 10 0 - - -, f 5;
#X msg 605 253 oversample \$1;
#X obj 605 188 loadbang;
#X msg 605 211 2;
#X obj 121 6 r OSC_ALL_SYNTH;
#X obj 121 75 route \$1;
#X obj 9 6 r \$2-SYNTH_ON_OFF;
#X obj 9 53 print \$2-\$1-SYNTH;
#X obj 298 262 labdoma_mapping \$2;
#X obj 9 85 sel 0;
#X msg 289 217 symbol W;
#X text 239 97 <-- \$1 velociy \$2 matrixPosId;
#X obj 221 6 r SYNTH_SUMM;
#X obj 221 53 spigot;
#X msg 121 193 0;
#X obj 121 171 bang;
#X floatatom 176 151 5 0 0 0 - - -, f 5;
#X obj 121 134 moses 0;
#X obj 271 287 > 0;
#X obj 271 310 s \$1-STATE;
#X obj 221 311 t b f;
#X obj 160 413 line~;
#X obj 160 193 iir 10;
#X obj 160 171 moses 300;
#X obj 160 215 / 300;
#X obj 160 264 trigger float float;
#X obj 160 391 pack 0 200;
#X obj 342 520 *~;
#X obj 388 331 mtof;
#X obj 388 363 pack 0 50;
#X obj 388 388 line~;
#X obj 388 6 r \$2-MIDI;
#X msg 538 186 25;
#X obj 221 220 + 1;
#X obj 221 287 / 100;
#X obj 160 364 / 1;
#X obj 160 288 * 0.01;
#X obj 454 235 * 100;
#X obj 510 111 pack 0 200;
#X obj 510 133 line;
#X obj 343 487 *~ 0.1;
#X connect 1 0 66 0;
#X connect 2 0 31 0;
#X connect 3 0 10 0;
#X connect 3 0 34 1;
#X connect 6 0 7 0;
#X connect 7 0 11 0;
#X connect 7 0 34 2;
#X connect 9 0 8 0;
#X connect 9 0 13 0;
#X connect 9 1 3 0;
#X connect 9 2 6 0;
#X connect 14 0 43 0;
#X connect 14 1 9 0;
#X connect 15 0 1 0;
#X connect 16 0 15 0;
#X connect 16 0 52 0;
#X connect 17 0 18 0;
#X connect 18 0 21 0;
#X connect 19 0 20 0;
#X connect 20 0 17 0;
#X connect 21 0 1 2;
#X connect 22 0 25 0;
#X connect 23 0 1 0;
#X connect 24 0 58 0;
#X connect 25 0 23 0;
#X connect 26 0 27 0;
#X connect 27 0 1 0;
#X connect 28 0 29 0;
#X connect 29 0 26 0;
#X connect 30 0 2 0;
#X connect 31 0 14 0;
#X connect 32 0 2 1;
#X connect 32 0 35 0;
#X connect 32 0 39 1;
#X connect 34 0 12 0;
#X connect 34 0 15 0;
#X connect 35 0 16 0;
#X connect 36 0 34 0;
#X connect 38 0 39 0;
#X connect 39 0 59 0;
#X connect 40 0 51 0;
#X connect 41 0 40 0;
#X connect 43 0 41 0;
#X connect 43 1 42 0;
#X connect 43 1 49 0;
#X connect 44 0 45 0;
#X connect 46 0 61 0;
#X connect 46 1 61 1;
#X connect 47 0 53 1;
#X connect 48 0 50 0;
#X connect 49 0 48 0;
#X connect 50 0 51 0;
#X connect 50 0 63 0;
#X connect 51 0 62 0;
#X connect 51 1 44 0;
#X connect 52 0 47 0;
#X connect 53 0 0 0;
#X connect 54 0 55 0;
#X connect 55 0 56 0;
#X connect 56 0 1 1;
#X connect 57 0 54 0;
#X connect 58 0 22 0;
#X connect 59 0 60 0;
#X connect 60 0 46 0;
#X connect 61 0 52 0;
#X connect 62 0 61 0;
#X connect 63 0 64 0;
#X connect 64 0 65 0;
#X connect 65 0 25 0;
#X connect 66 0 53 0;
