#N canvas 1 115 1076 652 10;
#X obj 591 548 bp~ 440 80;
#X obj 670 548 bp~ 440 80;
#X obj 749 548 bp~ 440 80;
#X obj 829 548 bp~ 440 80;
#X obj 619 337 unpack 1 2 3 4 5;
#X text 993 57 metal;
#X text 991 79 glass 2;
#X text 963 167 wood;
#X msg 845 190 109 230 352 413 10;
#X msg 845 124 1245 1503 2131 2575 100;
#X text 972 145 plastic;
#X text 992 124 china;
#X text 992 101 glass 1;
#X text 964 189 cardboard;
#X msg 845 146 627 781 972 1184 70;
#X msg 845 80 2312 2466 3200 5314 380;
#X msg 844 102 1679 1233 4251 4640 340;
#X msg 845 168 221 333 426 527 40;
#X obj 619 423 line;
#X obj 937 423 line;
#X obj 857 423 line;
#X obj 777 424 line;
#X obj 698 423 line;
#X obj 758 33 sel 0 1 2 3 4 5;
#X msg 845 58 3454 5645 6433 8945 200;
#X obj 716 619 throw~ signal;
#X obj 239 284 osc~;
#X obj 165 39 spigot;
#X obj 374 128 % 16;
#X text 404 127 posX;
#X text 491 128 posY;
#X obj 460 128 / 16;
#X obj 435 160 i;
#X floatatom 296 128 5 0 0 0 - - -, f 5;
#X obj 288 105 trigger float float float;
#X msg 165 343 0;
#X floatatom 322 236 5 0 0 0 - - -, f 5;
#X obj 165 390 metro 1000;
#X obj 452 194 + 1;
#X msg 184 364 1;
#N canvas 157 128 797 509 adsr 0;
#X obj 247 104 * 1;
#X obj 323 108 * 1;
#X obj 388 116 * 1;
#X obj 470 120 * 1;
#X obj 562 206 +;
#X obj 562 272 +;
#X obj 562 459 outlet;
#X text 607 461 adsr total time (ms);
#X obj 152 140 inlet~;
#X obj 108 140 inlet;
#X text 106 123 trig;
#X text 153 123 sound;
#X obj 212 438 *~;
#X obj 213 472 outlet~;
#X text 231 347 attack;
#X text 292 347 decay;
#X text 363 347 sus;
#X text 431 346 rel;
#X msg 423 321 0;
#X obj 228 414 vline~;
#X obj 480 326 +;
#X obj 228 323 f;
#X obj 285 312 f;
#X obj 228 363 pack 0 0;
#X obj 285 363 pack 0 0 0;
#X obj 354 363 pack 0 0 0;
#X obj 423 363 pack 0 0 0;
#X text 246 14 attack;
#X text 323 14 decay;
#X text 385 14 sustain;
#X text 468 14 release;
#X obj 247 29 inlet;
#X obj 323 29 inlet;
#X obj 388 29 inlet;
#X obj 470 29 inlet;
#X obj 557 31 inlet;
#X text 618 16 att level;
#X obj 620 31 inlet;
#X text 686 15 sust level;
#X obj 688 31 inlet;
#X obj 247 64 / 100;
#X obj 323 64 / 100;
#X obj 388 64 / 100;
#X obj 470 64 / 100;
#X text 555 12 seg len;
#X obj 557 64 t b f;
#X obj 480 289 t b f;
#X obj 562 176 t b f;
#X obj 562 243 t b f;
#X obj 352 183 +;
#X obj 352 154 t b f;
#X connect 0 0 49 0;
#X connect 0 0 24 2;
#X connect 0 0 23 1;
#X connect 1 0 24 1;
#X connect 1 0 50 0;
#X connect 2 0 25 1;
#X connect 2 0 46 0;
#X connect 2 0 4 0;
#X connect 3 0 47 0;
#X connect 3 0 26 1;
#X connect 4 0 48 0;
#X connect 5 0 6 0;
#X connect 8 0 12 0;
#X connect 9 0 21 0;
#X connect 9 0 22 0;
#X connect 9 0 18 0;
#X connect 12 0 13 0;
#X connect 18 0 26 0;
#X connect 19 0 12 1;
#X connect 20 0 26 2;
#X connect 21 0 23 0;
#X connect 22 0 25 0;
#X connect 22 0 24 0;
#X connect 23 0 19 0;
#X connect 24 0 19 0;
#X connect 25 0 19 0;
#X connect 26 0 19 0;
#X connect 31 0 40 0;
#X connect 32 0 41 0;
#X connect 33 0 42 0;
#X connect 34 0 43 0;
#X connect 35 0 45 0;
#X connect 37 0 21 1;
#X connect 39 0 22 1;
#X connect 40 0 0 0;
#X connect 41 0 1 0;
#X connect 42 0 2 0;
#X connect 43 0 3 0;
#X connect 45 0 0 0;
#X connect 45 0 1 0;
#X connect 45 0 2 0;
#X connect 45 0 3 0;
#X connect 45 1 3 1;
#X connect 45 1 2 1;
#X connect 45 1 1 1;
#X connect 45 1 0 1;
#X connect 46 0 20 0;
#X connect 46 1 20 1;
#X connect 47 0 4 0;
#X connect 47 1 4 1;
#X connect 48 0 5 0;
#X connect 48 1 5 1;
#X connect 49 0 5 0;
#X connect 49 0 25 2;
#X connect 49 0 20 0;
#X connect 50 0 49 0;
#X connect 50 1 49 1;
#X coords 0 -1 1 1 100 15 1 100 100;
#X restore 302 462 pd adsr;
#X floatatom 408 465 5 0 0 3 total_time(ms) - -, f 5;
#X obj 452 248 change;
#X obj 716 594 *~ 0.1;
#X obj 302 485 *~ 1;
#X obj 165 104 > 0;
#X obj 165 125 change;
#X obj 165 83 unpack float float;
#X obj 288 147 change;
#X obj 312 284 phasor~;
#X obj 312 258 sig~;
#X obj 184 169 trigger bang bang;
#X obj 33 33 sel 0;
#X obj 165 8 r OSC_ALL_SYNTH;
#X obj 165 146 sel 0 1;
#X msg 312 176 symbol Q;
#X obj 165 61 route \$1;
#X obj 33 8 r \$2-SYNTH_ON_OFF;
#X obj 555 8 r \$2-TEMPO;
#X obj 688 8 r \$2-SLOPE;
#X obj 758 8 r \$2-MATERIALS;
#X obj 33 57 print \$2-\$1-SYNTH;
#X obj 312 211 labdoma_mapping \$2;
#X obj 325 317 r \$2-ATTACK;
#X obj 336 337 r \$2-DECAY;
#X obj 348 357 r \$2-SUSTAIN;
#X obj 360 377 r \$2-RELEASE;
#X obj 371 397 r \$2-SEGMENT-LENGHT;
#X obj 383 417 r \$2-ATTACK-LEVEL;
#X obj 395 437 r \$2-SUSTAIN-LEVEL;
#X obj 619 401 pack 0 1000;
#X obj 698 401 pack 0 1000;
#X obj 777 401 pack 0 1000;
#X obj 857 401 pack 0 1000;
#X obj 937 401 pack 0 1200;
#X text 311 82 <-- \$1-velociy \$2-matrixPosId;
#X obj 452 225 * 1;
#X floatatom 452 272 5 0 0 0 - - -, f 5;
#X connect 0 0 43 0;
#X connect 1 0 43 0;
#X connect 2 0 43 0;
#X connect 3 0 43 0;
#X connect 4 0 70 0;
#X connect 4 1 71 0;
#X connect 4 2 72 0;
#X connect 4 3 73 0;
#X connect 4 4 74 0;
#X connect 8 0 4 0;
#X connect 9 0 4 0;
#X connect 14 0 4 0;
#X connect 15 0 4 0;
#X connect 16 0 4 0;
#X connect 17 0 4 0;
#X connect 18 0 0 1;
#X connect 19 0 0 2;
#X connect 19 0 1 2;
#X connect 19 0 2 2;
#X connect 19 0 3 2;
#X connect 20 0 3 1;
#X connect 21 0 2 1;
#X connect 22 0 1 1;
#X connect 23 0 8 0;
#X connect 23 1 17 0;
#X connect 23 2 14 0;
#X connect 23 3 9 0;
#X connect 23 4 16 0;
#X connect 23 5 15 0;
#X connect 23 6 24 0;
#X connect 24 0 4 0;
#X connect 26 0 40 1;
#X connect 27 0 56 0;
#X connect 28 0 62 1;
#X connect 31 0 32 0;
#X connect 32 0 38 0;
#X connect 32 0 62 2;
#X connect 34 0 33 0;
#X connect 34 0 48 0;
#X connect 34 1 28 0;
#X connect 34 2 31 0;
#X connect 35 0 37 0;
#X connect 37 0 40 0;
#X connect 38 0 76 0;
#X connect 39 0 37 0;
#X connect 40 0 44 0;
#X connect 40 1 41 0;
#X connect 42 0 37 1;
#X connect 42 0 77 0;
#X connect 43 0 25 0;
#X connect 44 0 0 0;
#X connect 44 0 1 0;
#X connect 44 0 2 0;
#X connect 44 0 3 0;
#X connect 45 0 46 0;
#X connect 46 0 54 0;
#X connect 47 0 45 0;
#X connect 47 1 34 0;
#X connect 49 0 40 1;
#X connect 50 0 49 0;
#X connect 51 0 39 0;
#X connect 51 1 40 0;
#X connect 52 0 35 0;
#X connect 53 0 27 0;
#X connect 54 0 35 0;
#X connect 54 1 51 0;
#X connect 55 0 62 0;
#X connect 56 0 47 0;
#X connect 57 0 27 1;
#X connect 57 0 52 0;
#X connect 58 0 76 1;
#X connect 59 0 70 1;
#X connect 59 0 71 1;
#X connect 59 0 72 1;
#X connect 59 0 73 1;
#X connect 59 0 74 1;
#X connect 60 0 23 0;
#X connect 62 0 36 0;
#X connect 62 0 26 0;
#X connect 63 0 40 2;
#X connect 64 0 40 3;
#X connect 65 0 40 4;
#X connect 66 0 40 5;
#X connect 67 0 40 6;
#X connect 68 0 40 7;
#X connect 69 0 40 8;
#X connect 70 0 18 0;
#X connect 71 0 22 0;
#X connect 72 0 21 0;
#X connect 73 0 20 0;
#X connect 74 0 19 0;
#X connect 76 0 42 0;
