#N canvas 710 25 581 625 10;
#X obj 80 566 throw~ signal;
#X obj 79 388 line~;
#X obj 79 410 osc~;
#X msg 310 238 0;
#X obj 133 53 spigot;
#X floatatom 93 302 5 0 0 0 - - -, f 5;
#X obj 133 6 r OSC_ALL_SYNTH;
#X msg 35 225 symbol W;
#X obj 232 6 r \$2-SYNTH_ON_OFF;
#X obj 133 75 route \$1;
#X obj 81 273 labdoma_mapping \$2;
#X obj 310 209 bang;
#X obj 310 186 moses 0;
#X obj 413 6 r SYNTH_SUMM;
#X obj 409 325 t b f;
#X obj 79 523 *~;
#X obj 349 387 / 1;
#X obj 79 366 pack 0 60;
#X obj 500 6 curve_log;
#X obj 349 436 line~;
#X obj 500 29 curve_exp;
#X obj 349 209 iir 10;
#X obj 409 301 * 0.1;
#X obj 349 301 * 0.001;
#X obj 349 412 pack 0 200;
#X obj 78 432 *~ 0.05;
#X obj 133 146 / 4;
#X obj 133 170 i;
#X obj 192 146 / 4;
#X obj 192 170 i;
#X floatatom 141 195 5 0 0 0 - - -, f 5;
#X text 141 215 posX;
#X floatatom 195 195 5 0 0 0 - - -, f 5;
#X text 192 75 <-- \$1 blobID \$2-matrixPosX \$3-matrixPosY \$4-blobPerimeter
\$5-pre;
#X text 195 215 posY;
#X floatatom 251 146 5 0 0 0 - - -, f 5;
#X obj 133 116 unpack float float float float;
#X obj 349 232 / 255;
#X obj 430 175 > 0;
#X obj 430 219 s \$1-STATE;
#X obj 430 197 change;
#X connect 1 0 2 0;
#X connect 2 0 25 0;
#X connect 3 0 23 0;
#X connect 4 0 9 0;
#X connect 6 0 4 0;
#X connect 7 0 10 0;
#X connect 8 0 4 1;
#X connect 8 0 24 0;
#X connect 9 0 36 0;
#X connect 10 0 5 0;
#X connect 10 0 17 0;
#X connect 11 0 3 0;
#X connect 12 0 11 0;
#X connect 12 1 21 0;
#X connect 13 0 22 0;
#X connect 14 0 16 0;
#X connect 14 1 16 1;
#X connect 15 0 0 0;
#X connect 16 0 24 0;
#X connect 17 0 1 0;
#X connect 19 0 15 1;
#X connect 21 0 37 0;
#X connect 22 0 14 0;
#X connect 23 0 16 0;
#X connect 24 0 19 0;
#X connect 25 0 15 0;
#X connect 26 0 27 0;
#X connect 27 0 10 1;
#X connect 27 0 30 0;
#X connect 28 0 29 0;
#X connect 29 0 10 2;
#X connect 29 0 32 0;
#X connect 36 0 26 0;
#X connect 36 1 28 0;
#X connect 36 2 35 0;
#X connect 36 3 12 0;
#X connect 36 3 38 0;
#X connect 37 0 23 0;
#X connect 38 0 40 0;
#X connect 40 0 39 0;
