#N canvas 166 1316 1076 652 10;
#X obj 336 588 throw~ signal;
#X obj 165 39 spigot;
#X text 191 160 posX;
#X text 251 160 posY;
#X obj 224 161 i;
#X floatatom 207 298 5 0 0 0 - - -, f 5;
#N canvas 157 128 797 509 adsr 0;
#X obj 247 104 * 1;
#X obj 323 108 * 1;
#X obj 388 116 * 1;
#X obj 470 120 * 1;
#X obj 562 206 +;
#X obj 562 272 +;
#X obj 562 459 outlet;
#X text 607 461 adsr total time (ms);
#X obj 152 140 inlet~;
#X obj 108 140 inlet;
#X text 106 123 trig;
#X text 153 123 sound;
#X obj 212 438 *~;
#X obj 213 472 outlet~;
#X text 231 347 attack;
#X text 292 347 decay;
#X text 363 347 sus;
#X text 431 346 rel;
#X msg 423 321 0;
#X obj 228 414 vline~;
#X obj 480 326 +;
#X obj 228 323 f;
#X obj 285 312 f;
#X obj 228 363 pack 0 0;
#X obj 285 363 pack 0 0 0;
#X obj 354 363 pack 0 0 0;
#X obj 423 363 pack 0 0 0;
#X text 246 14 attack;
#X text 323 14 decay;
#X text 385 14 sustain;
#X text 468 14 release;
#X obj 247 29 inlet;
#X obj 323 29 inlet;
#X obj 388 29 inlet;
#X obj 470 29 inlet;
#X obj 557 31 inlet;
#X text 618 16 att level;
#X obj 620 31 inlet;
#X text 686 15 sust level;
#X obj 688 31 inlet;
#X obj 247 64 / 100;
#X obj 323 64 / 100;
#X obj 388 64 / 100;
#X obj 470 64 / 100;
#X text 555 12 seg len;
#X obj 557 64 t b f;
#X obj 480 289 t b f;
#X obj 562 176 t b f;
#X obj 562 243 t b f;
#X obj 352 183 +;
#X obj 352 154 t b f;
#X connect 0 0 49 0;
#X connect 0 0 24 2;
#X connect 0 0 23 1;
#X connect 1 0 24 1;
#X connect 1 0 50 0;
#X connect 2 0 25 1;
#X connect 2 0 46 0;
#X connect 2 0 4 0;
#X connect 3 0 47 0;
#X connect 3 0 26 1;
#X connect 4 0 48 0;
#X connect 5 0 6 0;
#X connect 8 0 12 0;
#X connect 9 0 21 0;
#X connect 9 0 22 0;
#X connect 9 0 18 0;
#X connect 12 0 13 0;
#X connect 18 0 26 0;
#X connect 19 0 12 1;
#X connect 20 0 26 2;
#X connect 21 0 23 0;
#X connect 22 0 25 0;
#X connect 22 0 24 0;
#X connect 23 0 19 0;
#X connect 24 0 19 0;
#X connect 25 0 19 0;
#X connect 26 0 19 0;
#X connect 31 0 40 0;
#X connect 32 0 41 0;
#X connect 33 0 42 0;
#X connect 34 0 43 0;
#X connect 35 0 45 0;
#X connect 37 0 21 1;
#X connect 39 0 22 1;
#X connect 40 0 0 0;
#X connect 41 0 1 0;
#X connect 42 0 2 0;
#X connect 43 0 3 0;
#X connect 45 0 0 0;
#X connect 45 0 1 0;
#X connect 45 0 2 0;
#X connect 45 0 3 0;
#X connect 45 1 3 1;
#X connect 45 1 2 1;
#X connect 45 1 1 1;
#X connect 45 1 0 1;
#X connect 46 0 20 0;
#X connect 46 1 20 1;
#X connect 47 0 4 0;
#X connect 47 1 4 1;
#X connect 48 0 5 0;
#X connect 48 1 5 1;
#X connect 49 0 5 0;
#X connect 49 0 25 2;
#X connect 49 0 20 0;
#X connect 50 0 49 0;
#X connect 50 1 49 1;
#X coords 0 -1 1 1 100 15 1 100 100;
#X restore 342 469 pd adsr;
#X floatatom 448 472 5 0 0 3 total_time(ms) - -, f 5;
#X obj 341 278 change;
#X obj 336 563 *~ 0.1;
#X obj 342 109 > 0;
#X obj 342 130 change;
#X obj 165 8 r OSC_ALL_SYNTH;
#X obj 165 61 route \$1;
#X obj 266 8 r \$2-SYNTH_ON_OFF;
#X obj 419 8 r \$2-TEMPO;
#X obj 341 235 * 1;
#X text 242 49 <-- \$1 blobID \$2-matrixPosX \$3-matrixPosY \$4-blobPerimeter
\$5-pre;
#X obj 165 161 i;
#X obj 342 152 t f f;
#X obj 165 84 unpack float float float float;
#X obj 369 175 s \$1-STATE;
#X obj 264 192 sel 0;
#X msg 264 216 0;
#X obj 160 227 * 10;
#X obj 165 185 + 100;
#X obj 341 301 bang;
#X obj 365 324 r 1-ATTACK;
#X obj 376 344 r 1-DECAY;
#X obj 388 364 r 1-SUSTAIN;
#X obj 400 384 r 1-RELEASE;
#X obj 411 404 r 1-SEGMENT-LENGHT;
#X obj 423 424 r 1-ATTACK-LEVEL;
#X obj 435 444 r 1-SUSTAIN-LEVEL;
#X obj 165 112 iir 5;
#X obj 224 112 iir 5;
#X obj 160 293 osc~;
#X connect 1 0 13 0;
#X connect 4 0 16 0;
#X connect 6 0 9 0;
#X connect 6 1 7 0;
#X connect 8 0 26 0;
#X connect 9 0 0 0;
#X connect 10 0 11 0;
#X connect 11 0 19 0;
#X connect 12 0 1 0;
#X connect 13 0 20 0;
#X connect 14 0 1 1;
#X connect 14 0 22 0;
#X connect 16 0 8 0;
#X connect 18 0 25 0;
#X connect 19 1 21 0;
#X connect 20 0 34 0;
#X connect 20 1 35 0;
#X connect 20 3 10 0;
#X connect 22 0 23 0;
#X connect 23 0 8 0;
#X connect 23 0 36 0;
#X connect 24 0 5 0;
#X connect 24 0 36 0;
#X connect 25 0 24 0;
#X connect 26 0 6 0;
#X connect 27 0 6 2;
#X connect 28 0 6 3;
#X connect 29 0 6 4;
#X connect 30 0 6 5;
#X connect 31 0 6 6;
#X connect 32 0 6 7;
#X connect 33 0 6 8;
#X connect 34 0 18 0;
#X connect 35 0 4 0;
#X connect 36 0 6 1;
