#N canvas 137 24 1141 644 10;
#X obj 411 542 bp~ 440 80;
#X obj 490 542 bp~ 440 80;
#X obj 569 542 bp~ 440 80;
#X obj 649 542 bp~ 440 80;
#X obj 663 365 unpack 1 2 3 4 5;
#X text 810 65 metal;
#X text 808 87 glass 2;
#X text 780 175 wood;
#X msg 662 198 109 230 352 413 10;
#X msg 662 132 1245 1503 2131 2575 100;
#X text 789 153 plastic;
#X text 809 132 china;
#X text 809 109 glass 1;
#X text 781 197 cardboard;
#X msg 662 154 627 781 972 1184 70;
#X msg 662 88 2312 2466 3200 5314 380;
#X msg 661 110 1679 1233 4251 4640 340;
#X msg 662 176 221 333 426 527 40;
#X obj 439 471 line;
#X obj 757 471 line;
#X obj 677 471 line;
#X obj 597 472 line;
#X obj 518 471 line;
#X msg 662 66 3454 5645 6433 8945 200;
#X obj 536 629 throw~ signal;
#X obj 95 47 spigot;
#X text 61 115 posX;
#X text 200 115 posY;
#X obj 193 207 i;
#X obj 280 147 > 0;
#X obj 280 168 change;
#X obj 95 16 r OSC_ALL_SYNTH;
#X msg 66 206 symbol Q;
#X obj 95 69 route \$1;
#X obj 196 16 r \$2-SYNTH_ON_OFF;
#X obj 508 16 r \$2-SLOPE;
#X obj 578 16 r \$2-MATERIALS;
#X obj 134 205 i;
#X obj 291 193 s \$1-STATE;
#X obj -37 80 print;
#X obj -37 17 bng 15 250 50 0 empty empty empty 17 7 0 10 -262144 -1
-1;
#X obj 39 16 inlet;
#X obj -37 37 \$1;
#X obj 0 17 bng 15 250 50 0 empty empty empty 17 7 0 10 -262144 -1
-1;
#X obj 0 37 \$2;
#X obj 578 41 sel 0 1 2 3 4 5 6;
#X obj 439 449 pack f 1500;
#X obj 518 449 pack f 1500;
#X obj 597 449 pack f 1500;
#X obj 677 449 pack f 1500;
#X obj 757 449 pack f 1500;
#X obj 416 224 r RELEASE;
#X obj 416 182 r SUSTAIN;
#X obj 416 141 r DECAY;
#X obj 416 99 r ATTACK;
#X obj 417 266 r ATTACK-LEVEL;
#X obj 418 308 r SUSTAIN-LEVEL;
#X obj 90 270 labdoma_mapping;
#X obj 337 366 adsr~;
#X msg 416 120 set_a \$1;
#X msg 416 162 set_d \$1;
#X msg 416 203 set_s \$1;
#X msg 416 245 set_r \$1;
#X msg 417 287 set_gain1 \$1;
#X msg 418 329 set_gain2 \$1;
#X obj 237 424 *~;
#X obj 869 16 r SYNTH_SUMM;
#X obj 867 435 vline~;
#X obj 536 606 /~;
#X obj 973 288 moses 0;
#X obj 973 244 - 0;
#X obj 988 217 r threshold;
#X obj 1027 266 255;
#X obj 1027 244 t b f;
#X obj 139 325 synth_fm \$1;
#X obj 1012 359 f 0;
#X obj 1012 335 t f b;
#X obj 1039 359 f 0;
#X obj 1012 386 -;
#X obj 1027 288 - 0;
#X obj 1012 311 / 1;
#X obj 280 216 sel 1;
#X obj 280 238 debounce 50;
#X obj 867 413 pack f 50;
#X obj 1012 408 <= 0;
#X obj 1012 450 sel 1, f 7;
#X obj 1012 429 change;
#X obj 907 194 moses 0;
#X obj 932 516 f;
#X obj 946 217 t f f;
#X obj 95 92 unpack float float float float;
#X obj 932 537 clip 0 255;
#X obj 237 447 *~;
#X text 172 57 <-- \$1 blobID \$2-matrixPosX \$3-matrixPosY \$4-blobPresure
\$5-blobPerimeter;
#X obj 933 558 / 255;
#X obj 139 348 hip~ 3;
#X obj 139 371 lop~ 300;
#X obj 1012 472 onebang;
#X obj 907 217 bang;
#X obj 867 391 * 500;
#X obj 214 277 t b b f;
#X obj 237 470 *~ 0.2;
#X obj 134 184 / 4;
#X obj 193 186 / 4;
#X obj 95 115 change;
#X obj 154 115 change;
#X obj 933 579 mapping/curve 0.22;
#X obj 162 184 * 8;
#X obj 220 186 * 16;
#X obj 193 159 t f f;
#X obj 134 159 t f f;
#X obj 907 172 change;
#X obj 154 136 moses 0;
#X obj 95 136 moses 0;
#X obj 867 367 + 1;
#X connect 0 0 68 0;
#X connect 1 0 68 0;
#X connect 2 0 68 0;
#X connect 3 0 68 0;
#X connect 4 0 46 0;
#X connect 4 1 47 0;
#X connect 4 2 48 0;
#X connect 4 3 49 0;
#X connect 4 4 50 0;
#X connect 8 0 4 0;
#X connect 9 0 4 0;
#X connect 14 0 4 0;
#X connect 15 0 4 0;
#X connect 16 0 4 0;
#X connect 17 0 4 0;
#X connect 18 0 0 1;
#X connect 19 0 0 2;
#X connect 19 0 1 2;
#X connect 19 0 2 2;
#X connect 19 0 3 2;
#X connect 20 0 3 1;
#X connect 21 0 2 1;
#X connect 22 0 1 1;
#X connect 23 0 4 0;
#X connect 25 0 33 0;
#X connect 28 0 57 2;
#X connect 29 0 30 0;
#X connect 30 0 38 0;
#X connect 30 0 81 0;
#X connect 31 0 25 0;
#X connect 32 0 57 0;
#X connect 33 0 90 0;
#X connect 34 0 25 1;
#X connect 35 0 46 1;
#X connect 35 0 47 1;
#X connect 35 0 48 1;
#X connect 35 0 49 1;
#X connect 35 0 50 1;
#X connect 36 0 45 0;
#X connect 37 0 57 1;
#X connect 40 0 42 0;
#X connect 42 0 39 0;
#X connect 43 0 44 0;
#X connect 44 0 39 0;
#X connect 45 0 8 0;
#X connect 45 1 17 0;
#X connect 45 2 14 0;
#X connect 45 3 9 0;
#X connect 45 4 16 0;
#X connect 45 5 15 0;
#X connect 45 6 23 0;
#X connect 46 0 18 0;
#X connect 47 0 22 0;
#X connect 48 0 21 0;
#X connect 49 0 20 0;
#X connect 50 0 19 0;
#X connect 51 0 62 0;
#X connect 52 0 61 0;
#X connect 53 0 60 0;
#X connect 54 0 59 0;
#X connect 55 0 63 0;
#X connect 56 0 64 0;
#X connect 57 0 74 0;
#X connect 58 0 65 1;
#X connect 59 0 58 0;
#X connect 60 0 58 0;
#X connect 61 0 58 0;
#X connect 62 0 58 0;
#X connect 63 0 58 0;
#X connect 64 0 58 0;
#X connect 65 0 92 0;
#X connect 66 0 114 0;
#X connect 67 0 68 1;
#X connect 68 0 24 0;
#X connect 69 1 80 0;
#X connect 70 0 69 0;
#X connect 71 0 70 1;
#X connect 71 0 73 0;
#X connect 72 0 79 0;
#X connect 73 0 72 0;
#X connect 73 1 79 1;
#X connect 74 0 95 0;
#X connect 75 0 77 1;
#X connect 75 0 78 0;
#X connect 76 0 75 0;
#X connect 76 1 77 0;
#X connect 77 0 78 1;
#X connect 78 0 84 0;
#X connect 79 0 80 1;
#X connect 80 0 76 0;
#X connect 81 0 82 0;
#X connect 83 0 67 0;
#X connect 84 0 86 0;
#X connect 85 0 97 0;
#X connect 86 0 85 0;
#X connect 87 0 98 0;
#X connect 87 1 89 0;
#X connect 88 0 91 0;
#X connect 89 0 88 1;
#X connect 89 1 70 0;
#X connect 90 0 104 0;
#X connect 90 1 105 0;
#X connect 90 2 29 0;
#X connect 90 2 111 0;
#X connect 91 0 94 0;
#X connect 92 0 101 0;
#X connect 94 0 106 0;
#X connect 95 0 96 0;
#X connect 96 0 65 0;
#X connect 97 0 88 0;
#X connect 98 0 97 1;
#X connect 99 0 83 0;
#X connect 100 0 58 0;
#X connect 100 1 74 3;
#X connect 100 2 92 1;
#X connect 101 0 0 0;
#X connect 101 0 1 0;
#X connect 101 0 2 0;
#X connect 101 0 3 0;
#X connect 102 0 37 0;
#X connect 103 0 28 0;
#X connect 104 0 113 0;
#X connect 105 0 112 0;
#X connect 106 0 100 0;
#X connect 107 0 74 1;
#X connect 108 0 74 2;
#X connect 109 0 103 0;
#X connect 109 1 108 0;
#X connect 110 0 102 0;
#X connect 110 1 107 0;
#X connect 111 0 87 0;
#X connect 112 1 109 0;
#X connect 113 1 110 0;
#X connect 114 0 99 0;
