#N canvas 433 184 286 238 10;
#X obj 35 127 *~;
#X obj 35 158 +~;
#X obj 35 185 osc~;
#X obj 35 28 inlet;
#X obj 79 28 inlet;
#X obj 129 28 inlet;
#X obj 35 217 outlet~;
#X text 64 158 carrier frequency;
#X text 65 127 modulation depth;
#X obj 35 92 tabosc4~ \$1-pitchmod;
#X msg 179 93 set \$1-pitchmod;
#X obj 179 28 inlet;
#X obj 179 60 \$1;
#X connect 0 0 1 0;
#X connect 1 0 2 0;
#X connect 2 0 6 0;
#X connect 3 0 9 0;
#X connect 4 0 0 1;
#X connect 5 0 1 1;
#X connect 9 0 0 0;
#X connect 10 0 9 0;
#X connect 11 0 12 0;
#X connect 12 0 10 0;
