#N canvas 200 117 644 559 10;
#X obj 262 558 throw~ signal;
#X obj 134 343 osc~;
#X msg 410 361 0;
#X obj 133 83 spigot;
#X obj 133 36 r OSC_ALL_SYNTH;
#X msg 43 631 symbol W;
#X obj 232 36 r \$2-SYNTH_ON_OFF;
#X obj 133 105 route \$1;
#X obj 43 656 labdoma_mapping \$2;
#X obj 410 218 bang;
#X obj 343 36 r SYNTH_SUMM;
#X obj 262 528 *~;
#X obj 43 678 curve_exp;
#X text 100 181 posX;
#X text 272 181 posY;
#X obj 133 141 unpack float float float float;
#X obj 550 242 > 0;
#X obj 550 286 s \$1-STATE;
#X obj 550 264 change;
#X obj 232 83 select 0;
#X obj 172 223 mtof;
#X obj 220 343 osc~;
#X obj 180 421 *~;
#X obj 133 181 moses 0;
#X obj 14 100 print;
#X obj 14 37 bng 15 250 50 0 empty empty empty 17 7 0 10 -262144 -1
-1;
#X obj 90 36 inlet;
#X obj 14 57 \$1;
#X obj 51 37 bng 15 250 50 0 empty empty empty 17 7 0 10 -262144 -1
-1;
#X obj 51 57 \$2;
#X obj 410 174 change;
#X obj 450 267 - 0;
#X obj 464 242 r threshold;
#X obj 220 181 moses 0;
#X obj 504 292 255;
#X obj 504 270 t b f;
#X obj 262 491 /~;
#X obj 489 445 vline~;
#X obj 351 425 vline~;
#X msg 133 223 0;
#X msg 220 223 0;
#X obj 134 321 vline~;
#X obj 133 202 bang;
#X obj 220 202 bang;
#X obj 220 321 vline~;
#X obj 172 202 + 18;
#X obj 259 222 / 60;
#X obj 259 264 * 60;
#X obj 220 299 pack f 50;
#X obj 134 299 pack f 50;
#X obj 489 423 pack f 50;
#X obj 351 403 pack f 50;
#X obj 259 202 clip 0 60;
#X obj 259 243 mapping/curve 0.18;
#X obj 489 337 / 1;
#X obj 504 314 - 0;
#X obj 410 196 moses 0;
#X obj 489 361 mapping/curve 0.25;
#X text 192 105 <-- \$1 blobID \$2-matrixPosX \$3-matrixPosY \$4-blobPressure
\$5-blobPerimeter;
#X obj 219 364 *~ 0.3;
#X obj 134 364 *~ 0.3;
#X obj 513 116 > 0;
#X obj 513 137 change;
#X obj 513 159 s \$1-STATE;
#X obj 360 142 t f f;
#X obj 351 381 * 480;
#X obj 351 338 + 1;
#X connect 1 0 60 0;
#X connect 2 0 50 0;
#X connect 3 0 7 0;
#X connect 4 0 3 0;
#X connect 5 0 8 0;
#X connect 6 0 3 1;
#X connect 6 0 19 0;
#X connect 7 0 15 0;
#X connect 9 0 2 0;
#X connect 10 0 66 0;
#X connect 11 0 0 0;
#X connect 15 0 23 0;
#X connect 15 1 33 0;
#X connect 15 2 64 0;
#X connect 16 0 18 0;
#X connect 18 0 17 0;
#X connect 19 0 2 0;
#X connect 20 0 49 0;
#X connect 21 0 59 0;
#X connect 22 0 36 0;
#X connect 23 0 42 0;
#X connect 23 1 45 0;
#X connect 25 0 27 0;
#X connect 27 0 24 0;
#X connect 28 0 29 0;
#X connect 29 0 24 0;
#X connect 30 0 56 0;
#X connect 31 0 54 0;
#X connect 32 0 31 1;
#X connect 32 0 35 0;
#X connect 33 0 43 0;
#X connect 33 1 52 0;
#X connect 34 0 55 0;
#X connect 35 0 34 0;
#X connect 35 1 55 1;
#X connect 36 0 11 0;
#X connect 37 0 11 1;
#X connect 38 0 36 1;
#X connect 39 0 49 0;
#X connect 40 0 48 0;
#X connect 41 0 1 0;
#X connect 42 0 39 0;
#X connect 43 0 40 0;
#X connect 44 0 21 0;
#X connect 45 0 20 0;
#X connect 46 0 53 0;
#X connect 47 0 48 0;
#X connect 48 0 44 0;
#X connect 49 0 41 0;
#X connect 50 0 37 0;
#X connect 51 0 38 0;
#X connect 52 0 46 0;
#X connect 53 0 47 0;
#X connect 54 0 57 0;
#X connect 55 0 54 1;
#X connect 56 0 9 0;
#X connect 56 1 16 0;
#X connect 56 1 31 0;
#X connect 57 0 50 0;
#X connect 59 0 22 1;
#X connect 60 0 22 0;
#X connect 61 0 62 0;
#X connect 62 0 63 0;
#X connect 64 0 61 0;
#X connect 64 1 30 0;
#X connect 65 0 51 0;
#X connect 66 0 65 0;
